PathFileType	4	(X/Y/Z)	D:\TRACE\spotREDO_2-26-24\spot_justBody_Motion_3_5-platform.trc
DataRate	CameraRate	NumFrames	NumMarkers	Units	OrigDataRate	OrigDataStartFrame	OrigNumFrames
100.00	100.00	      74	5	mm	100.00	6126	      7000
Frame#	Time	Left_Front			Right_Front			Left_Aft			Right_Aft			Post			
		X1	Y1	Z1	X2	Y2	Z2	X3	Y3	Z3	X4	Y4	Z4	X5	Y5	Z5	

6126	61.250	-710.05981	8.98531	-572.31854	704.92493	15.75567	-487.69727	-781.27045	-8.95827	646.25055	789.07874	-1.62245	650.33209	-0.61744	644.60449	-965.53271	
6127	61.260	-709.89130	8.81372	-572.37225	705.08899	15.62031	-487.70200	-781.16614	-8.80356	646.16687	789.15814	-1.50343	650.29095	-0.47654	644.42889	-965.70947	
6128	61.270	-709.68225	8.60264	-572.43915	705.31720	15.50805	-487.72748	-780.98077	-8.62820	646.13037	789.23712	-1.41827	650.24036	-0.32457	644.25128	-965.81567	
6129	61.280	-709.56000	8.42899	-572.52515	705.45270	15.34892	-487.68274	-780.86786	-8.31942	646.15729	789.34967	-1.32242	650.23212	-0.22545	644.03925	-966.00360	
6130	61.290	-709.44257	8.21263	-572.52832	705.45660	15.25925	-487.79761	-780.90149	-8.20093	646.09454	789.47754	-1.20202	650.20850	-0.15631	643.79987	-966.21667	
6131	61.300	-709.36505	8.01065	-572.56702	705.51135	15.23369	-487.95697	-780.80829	-7.98437	646.00800	789.64069	-1.01460	650.17163	-0.20645	643.59113	-966.37305	
6132	61.310	-709.22211	7.85077	-572.59204	705.67554	15.13911	-488.06161	-780.62799	-7.71529	646.01178	789.80627	-0.79093	650.06165	-0.17977	643.36731	-966.51080	
6133	61.320	-709.15802	7.67938	-572.63025	705.68970	15.00701	-488.03696	-780.58502	-7.66002	646.04529	789.90973	-0.58700	650.01678	-0.27069	643.07562	-966.70056	
6134	61.330	-709.04089	7.55677	-572.65808	705.79272	14.91156	-488.03046	-780.53064	-7.64891	646.05322	790.15143	-0.34244	649.95172	-0.19973	642.86328	-966.92639	
6135	61.340	-709.00043	7.50001	-572.68683	705.81866	14.86978	-488.17615	-780.44727	-7.52377	646.02264	790.19812	-0.18895	649.91101	-0.15664	642.73944	-967.15881	
6136	61.350	-708.90759	7.40679	-572.71564	705.88928	14.73840	-488.15683	-780.40369	-7.43504	645.96454	790.29529	-0.16069	649.87982	-0.27005	642.61755	-967.31079	
6137	61.360	-708.88391	7.34990	-572.75134	706.02301	14.67105	-488.20383	-780.32977	-7.21496	645.98865	790.40576	-0.07047	649.89575	-0.12719	642.36188	-967.52679	
6138	61.370	-708.85907	7.28271	-572.74524	706.10309	14.59809	-488.18106	-780.28534	-7.18743	645.90326	790.44092	-0.00412	649.87469	-0.04165	641.98621	-967.70087	
6139	61.380	-708.80383	7.19791	-572.78680	706.15607	14.50939	-488.19464	-780.11578	-7.05651	645.91321	790.37531	0.13195	649.88190	-0.08193	641.92816	-967.89935	
6140	61.390	-708.79517	7.15286	-572.79199	706.31183	14.31792	-488.04535	-780.08594	-7.04337	645.84314	790.43164	0.15402	649.82288	-0.07924	641.85724	-968.09857	
6141	61.400	-708.76233	7.09587	-572.78845	706.31891	14.30032	-488.10440	-780.13507	-7.05774	645.92584	790.44806	0.23981	649.84808	0.99600	641.67786	-967.89410	
6142	61.410	-708.55493	6.97273	-572.57385	706.34467	14.27423	-488.08597	-780.07501	-7.13354	645.89081	790.51703	0.12208	649.80579	1.01342	641.59253	-967.98224	
6143	61.420	-708.72314	7.04247	-572.81122	706.36646	14.24383	-488.14017	-779.97510	-7.01890	645.84698	790.55261	0.15781	649.78760	1.07163	641.46649	-967.97375	
6144	61.430	-708.67505	6.98628	-572.80212	706.39008	14.19925	-488.17725	-779.95490	-6.95087	645.77991	790.39551	0.36630	649.80347	0.78781	641.42798	-968.10223	
6145	61.440	-708.63330	6.91965	-572.85181	706.35077	14.15811	-488.21466	-779.90967	-6.84733	645.78094	790.40735	0.46978	649.80652	1.85144	641.08868	-968.04413	
6146	61.450	-708.60858	6.87221	-572.84863	706.35449	14.12319	-488.19803	-779.91217	-6.84104	645.79443	790.37579	0.50014	649.79791	1.96409	641.09070	-968.02997	
6147	61.460	-708.64160	6.86798	-572.84711	706.28558	14.14656	-488.23547	-779.92981	-6.78180	645.76935	790.38806	0.53335	649.74432	1.70062	641.09808	-968.04535	
6148	61.470	-708.61969	6.82459	-572.85046	706.33459	14.15552	-488.24356	-779.91919	-6.78158	645.78058	790.39832	0.58750	649.75946	1.52919	641.06238	-968.03528	
6149	61.480	-708.61041	6.89185	-572.88483	706.35004	14.14607	-488.18564	-779.93036	-6.79849	645.73303	790.36578	0.53813	649.77161	0.87398	641.21997	-968.18213	
6150	61.490	-708.65503	6.90342	-572.90503	706.36237	14.10886	-488.18735	-779.94409	-6.77295	645.73273	790.35626	0.54027	649.74988	0.93103	641.19727	-968.23456	
6151	61.500	-708.63751	6.83062	-572.88556	706.30566	14.12125	-488.25769	-779.83765	-6.72513	645.78119	790.36206	0.54149	649.77191	1.33123	641.13458	-968.25519	
6152	61.510	-708.63300	6.84564	-572.88013	706.31610	14.10164	-488.21567	-779.92505	-6.75608	645.79321	790.37048	0.51494	649.73315	1.23242	641.17755	-968.30402	
6153	61.520	-708.62030	6.85142	-572.90912	706.33331	14.14297	-488.22995	-779.92889	-6.80154	645.80170	790.39075	0.52560	649.76630	1.20672	641.19037	-968.26007	
6154	61.530	-708.62817	6.86361	-572.84778	706.31781	14.11611	-488.19601	-779.91351	-6.74336	645.81757	790.39893	0.53907	649.77557	1.21766	641.21259	-968.24023	
6155	61.540	-708.65918	6.85595	-572.86267	706.32568	14.12682	-488.21304	-779.92694	-6.75246	645.77246	790.37598	0.52230	649.77966	1.21226	641.19519	-968.21277	
6156	61.550	-708.73218	6.86881	-572.91174	706.23932	14.10127	-488.22626	-780.05499	-6.68150	645.74384	790.28210	0.52066	649.77002	1.01924	641.20819	-968.11194	
6157	61.560	-708.90680	6.83527	-572.84747	706.08856	14.08292	-488.25558	-780.30695	-6.69010	645.75714	790.15820	0.53272	649.77362	0.83503	641.14056	-968.02911	
6158	61.570	-709.18109	6.90921	-572.85797	705.94684	14.11633	-488.19888	-780.50690	-6.77482	645.83551	789.94379	0.55832	649.85858	0.58052	641.08862	-967.87103	
6159	61.580	-709.41626	6.97486	-572.80475	705.67780	14.12429	-488.18167	-780.57727	-6.87208	645.87012	789.75854	0.51353	649.86383	0.36620	641.20978	-967.79077	
6160	61.590	-709.63971	7.00571	-572.72357	705.38342	14.36461	-488.30090	-780.82056	-6.86607	645.87054	789.55457	0.44114	649.86554	0.17344	641.36774	-967.80243	
6161	61.600	-709.70258	7.08239	-572.71082	705.25775	14.46805	-488.22604	-780.99719	-6.97754	645.81445	789.40546	0.36583	649.79871	0.05266	641.60321	-967.85333	
6162	61.610	-709.76978	7.15290	-572.74713	704.97687	14.63160	-488.23557	-781.24054	-7.07888	645.33887	789.21436	0.23675	649.80957	-0.08214	641.77155	-967.85724	
6163	61.620	-709.76544	7.19072	-572.78723	704.79242	14.65693	-488.22647	-781.20728	-7.33604	645.47998	789.07434	0.12594	649.80182	-0.33302	641.99091	-967.75623	
6164	61.630	-709.92041	7.32100	-572.77661	704.58777	14.74372	-488.15256	-781.43896	-7.30743	645.67535	788.53497	-0.07990	649.81714	-0.56309	642.25806	-967.66034	
6165	61.640	-710.31635	7.38895	-572.71039	704.50604	14.86739	-488.04800	-781.68304	-7.47342	645.69525	788.46106	-0.31869	649.86633	-0.69860	642.36713	-967.40228	
6166	61.650	-710.72412	7.63210	-572.66919	704.44983	14.75719	-488.00653	-781.96442	-7.56462	645.63983	788.06653	-0.47617	649.96130	-0.94970	642.53625	-967.04553	
6167	61.660	-711.05750	7.79213	-572.64209	704.20276	14.91250	-487.83353	-782.24115	-7.81545	645.68359	787.90082	-0.57422	649.95178	-1.20733	642.68799	-966.78674	
6168	61.670	-711.31580	7.89164	-572.60773	703.79028	14.98456	-487.87637	-782.63800	-7.97034	645.69617	787.70056	-0.72682	650.14178	-1.61414	642.87714	-966.46161	
6169	61.680	-711.54230	8.12336	-572.55200	703.61871	15.09713	-487.81219	-782.87372	-8.00559	645.74634	787.48315	-0.78059	650.18365	-1.76033	643.05017	-966.23260	
6170	61.690	-711.76251	8.25953	-572.51233	703.33319	15.19308	-487.81271	-783.06091	-8.01398	645.75165	787.33911	-0.76137	650.21503	-2.07311	643.23193	-965.92303	
6171	61.700	-711.96173	8.36234	-572.46259	702.93170	15.48122	-487.92288	-783.26300	-8.11074	645.82617	787.10083	-0.90460	650.27307	-2.50268	643.48682	-965.77991	
6172	61.710	-712.36511	8.45537	-572.47333	702.69647	15.53261	-487.94025	-783.54956	-8.35628	645.96918	786.73352	-1.10055	650.33594	-2.67502	643.75983	-965.80023	
6173	61.720	-712.63171	8.48391	-572.41217	702.17334	15.64125	-487.84143	-783.94830	-8.55576	645.98834	786.37415	-1.18809	650.33521	-2.97535	644.00891	-965.90906	
6174	61.730	-712.89093	8.51416	-572.36511	701.92084	15.83417	-487.77682	-784.25690	-8.57004	646.39642	785.98981	-1.25510	650.36493	-3.30517	644.25470	-965.92993	
6175	61.740	-713.29932	8.58664	-572.21454	701.81201	15.84116	-487.63602	-784.66815	-8.69303	646.31104	785.68976	-1.11144	650.48193	-3.64111	644.44263	-965.93372	
6176	61.750	-713.63635	8.78248	-572.10840	701.57739	15.88991	-487.54501	-784.82886	-8.83799	646.48187	785.14661	-1.86799	650.29700	-4.13791	644.70007	-965.80963	
6177	61.760	-714.00439	8.86828	-572.08167	701.17395	15.98504	-487.52164	-785.12439	-9.09612	646.55237	784.93396	-2.01467	650.35669	-4.36586	645.01190	-965.58655	
6178	61.770	-714.33423	9.10064	-572.06598	700.83276	16.26402	-487.67517	-785.62830	-9.47414	646.42438	784.76501	-2.07784	650.45038	-4.58470	645.43207	-965.20001	
6179	61.780	-714.68549	9.38946	-572.01013	700.25751	16.24878	-487.52539	-785.91907	-9.66012	646.44019	784.32770	-2.27635	650.56799	-5.11683	645.67096	-964.89893	
6180	61.790	-715.02942	9.75439	-571.96716	699.62622	16.55115	-487.60373	-786.14362	-9.71446	646.44525	783.99780	-2.47538	650.67572	-5.22281	646.03015	-964.37604	
6181	61.800	-715.18719	9.88268	-571.95154	699.36444	16.79699	-487.54504	-786.52850	-9.86575	646.59302	783.66705	-2.53782	650.77020	-5.74968	646.38434	-963.92175	
6182	61.810	-715.66705	10.12760	-571.96771	699.13049	16.69804	-487.38455	-787.06378	-10.10370	646.58734	783.36816	-2.76479	650.70508	-6.06114	646.46808	-963.52020	
6183	61.820	-716.05396	10.30331	-571.93152	698.86505	16.68222	-487.35770	-787.47302	-10.10139	646.75269	783.11523	-2.87674	650.66241	-6.53840	646.68433	-963.13373	
6184	61.830	-716.43506	10.32861	-571.89410	698.60345	16.74148	-487.25095	-787.74719	-10.40728	646.64746	782.49219	-3.06237	650.69983	-6.89117	646.79053	-963.05963	
6185	61.840	-716.65790	10.37573	-571.86987	698.27368	17.03484	-487.33212	-788.02374	-10.42257	646.66528	782.15289	-3.16079	650.73059	-7.10827	646.94958	-962.99811	
6186	61.850	-717.00757	10.48159	-571.83771	697.70270	17.11290	-487.28189	-788.35455	-10.35664	646.72937	782.01746	-3.25736	650.71558	-7.47235	647.18121	-962.97321	
6187	61.860	-717.38269	10.55249	-571.81427	697.27429	17.44874	-487.30081	-788.77655	-10.47082	646.77991	781.66016	-3.40835	650.71881	-7.87718	647.41656	-962.99707	
6188	61.870	-717.78998	10.61329	-571.74603	696.67480	17.59317	-487.26370	-789.21625	-10.77330	646.70966	781.06244	-3.75687	650.70917	-8.06530	647.72522	-962.81903	
6189	61.880	-718.15778	10.68150	-571.60870	696.41510	17.44288	-487.12439	-789.65289	-11.14309	646.80365	780.55475	-3.92504	650.78748	-8.50293	648.12518	-962.93280	
6190	61.890	-718.58051	10.81483	-571.53137	696.26550	17.54207	-486.99884	-790.10529	-11.20021	646.89343	780.23328	-4.05124	650.76532	-9.06896	648.30237	-962.95197	
6191	61.900	-719.18188	11.12270	-571.51904	695.94745	17.66543	-487.01639	-790.30347	-11.25849	646.99023	780.14575	-4.06271	650.81323	-9.27194	648.40240	-962.76965	
6192	61.910	-719.75256	11.50660	-571.49237	695.44934	17.94633	-487.03049	-790.59021	-11.38977	647.02014	779.92242	-4.10723	650.80975	-9.57428	648.62097	-962.40149	
6193	61.920	-720.03015	11.54098	-571.51660	695.14362	18.02229	-486.99994	-790.84851	-11.44072	647.08362	779.43811	-4.35669	650.85223	-10.00156	648.77850	-962.13568	
6194	61.930	-720.18420	11.58282	-571.49438	694.81067	18.07137	-486.94363	-791.40015	-11.66219	647.15442	778.78632	-4.59403	650.89203	-10.57454	648.73456	-961.63379	
6195	61.940	-720.49158	11.66475	-571.45117	694.47620	18.08492	-486.92874	-791.72864	-11.77657	647.08734	778.27576	-4.61984	650.94873	-10.88742	648.98755	-961.21637	
6196	61.950	-721.00220	11.71724	-571.46991	693.86530	18.20790	-487.03534	-792.15320	-11.85298	647.02069	778.02045	-4.57587	650.96820	-11.42422	649.30621	-960.90607	
6197	61.960	-721.36401	11.82969	-571.54706	693.63910	18.25911	-486.87253	-792.48767	-11.57981	647.17346	777.87372	-4.57843	650.98895	-11.58795	649.42365	-960.76691	
6198	61.970	-721.58673	11.82566	-571.57489	693.30731	18.36266	-486.81717	-792.79901	-11.84211	647.11285	777.62469	-4.67196	651.06146	-11.83457	649.49506	-960.79089	
6199	61.980	-721.87427	11.82740	-571.63275	693.00470	18.31144	-486.81430	-793.21649	-11.87056	647.14191	777.28076	-4.78701	651.03668	-12.10158	649.53339	-960.91400	
